<?xml version="1.0" encoding="UTF-8"?>
<svg width="1080" height="1080" viewBox="0 0 1080 1080" xmlns="http://www.w3.org/2000/svg" preserveAspectRatio="xMidYMid meet">
<path d="M688.00,974.96C637.35,972.23 618.97,969.20 558.50,953.59C496.04,937.46 482.70,933.42 450.54,920.81C427.68,911.85 418.71,909.70 391.00,906.53C350.85,901.93 324.78,896.99 283.00,886.02C243.09,875.55 222.36,868.09 198.35,855.56C184.95,848.56 161.25,833.57 145.50,822.13C113.98,799.22 86.58,767.66 76.05,742.12C70.23,728.01 68.35,705.21 71.37,685.50C74.41,665.69 75.11,657.31 75.13,640.54C75.15,619.34 73.41,607.39 67.36,587.06C61.46,567.21 59.79,557.61 60.57,548.01C61.80,532.94 64.95,524.69 81.22,494.00C92.94,471.89 97.61,459.34 100.01,443.50C100.59,439.65 101.47,422.32 101.96,405.00C103.15,363.20 105.13,345.86 111.10,325.07C118.47,299.40 128.64,281.74 166.46,229.00C175.73,216.07 186.21,201.76 189.76,197.19C206.39,175.75 226.55,164.58 272.43,151.41C290.04,146.36 297.21,143.76 289.00,145.42C287.07,145.81 283.07,146.39 280.10,146.72C273.84,147.41 272.00,145.95 272.00,140.28C272.00,136.13 271.86,136.19 293.00,132.11C302.07,130.36 312.88,128.25 317.00,127.41C336.83,123.38 342.95,123.06 403.17,123.03C493.00,122.98 539.38,124.49 587.00,128.99C598.83,130.11 616.15,131.71 625.50,132.55C675.90,137.09 704.55,144.76 740.46,163.33C771.31,179.28 782.71,188.39 834.16,238.25C875.13,277.95 889.09,295.45 921.12,347.25C933.46,367.19 949.06,398.25 955.17,415.00C963.86,438.86 968.68,457.73 975.86,496.00C984.58,542.54 984.47,541.31 984.49,591.50C984.50,623.32 984.11,639.43 983.17,646.50C982.44,652.00 981.20,661.45 980.41,667.50C975.53,704.99 966.59,741.41 955.49,769.00C936.24,816.86 924.21,839.23 890.59,889.64C877.23,909.66 860.41,930.37 845.85,944.71C827.12,963.17 818.24,967.98 792.50,973.58C785.75,975.05 778.17,975.36 744.00,975.56C721.73,975.69 696.52,975.42 688.00,974.96ZM791.00,961.56C811.84,957.33 820.02,952.83 836.50,936.50C850.20,922.92 862.04,908.77 874.70,890.80C882.65,879.53 887.18,872.62 905.70,843.50C918.09,824.02 938.23,781.43 948.07,753.90C963.13,711.77 971.70,659.04 972.67,602.50C973.45,557.15 972.19,543.39 962.55,492.00C950.82,429.51 938.51,398.25 903.69,342.59C879.11,303.28 867.49,288.79 833.81,255.41C778.70,200.79 766.33,190.58 736.00,174.66C697.74,154.58 672.16,148.46 601.50,142.51C598.20,142.23 586.27,141.12 575.00,140.03C544.47,137.10 513.28,135.97 444.78,135.31C390.71,134.78 382.41,134.90 377.78,136.26C374.88,137.11 368.23,138.59 363.00,139.54C357.77,140.50 344.27,143.93 333.00,147.17C321.73,150.41 303.27,155.55 292.00,158.59C232.40,174.64 215.76,183.28 197.18,207.79C185.82,222.79 159.70,259.53 149.32,275.09C122.64,315.11 116.14,338.63 114.50,401.00C113.04,456.50 110.72,465.62 86.57,510.50C82.42,518.20 77.79,528.10 76.27,532.50C73.81,539.62 73.50,541.88 73.54,553.00C73.57,564.61 73.85,566.39 77.43,578.00C86.13,606.25 87.51,615.10 87.41,642.00C87.36,657.19 86.82,664.93 84.98,677.00C81.99,696.59 81.76,715.89 84.38,727.50C88.04,743.72 100.99,763.85 120.97,784.36C135.51,799.29 146.33,808.25 165.64,821.33C209.08,850.77 232.44,860.71 296.19,876.92C331.26,885.83 355.03,890.21 391.50,894.46C425.23,898.40 428.46,899.21 462.50,912.27C483.50,920.33 505.11,927.16 532.50,934.38C621.75,957.90 634.20,960.07 699.00,963.38C702.58,963.56 722.83,963.61 744.00,963.49C775.86,963.32 783.97,962.98 791.00,961.56ZM703.78,804.75C663.77,753.03 622.16,686.30 600.94,639.85C575.29,583.70 563.45,535.68 565.35,495.49C568.81,422.15 611.70,370.25 695.88,337.53C716.28,329.60 748.21,320.01 754.21,320.00C757.36,320.00 759.00,322.39 759.00,326.96C759.00,330.69 758.87,330.75 741.50,335.51C699.07,347.14 666.62,361.77 640.00,381.28C627.62,390.35 609.00,409.24 601.84,420.00C582.99,448.29 574.74,481.79 577.87,517.32C580.19,543.70 584.67,564.45 593.54,589.92C613.88,648.33 650.46,712.22 708.17,790.13C714.12,798.18 719.00,805.47 719.00,806.34C719.00,808.37 714.03,813.00 711.84,813.00C710.92,813.00 707.29,809.29 703.78,804.75ZM241.07,726.37C236.94,721.12 237.87,719.73 250.00,712.99C277.65,697.62 298.01,685.07 315.50,672.62C378.22,627.97 425.07,578.73 461.18,519.50C473.83,498.75 487.65,471.86 486.56,470.10C486.29,469.67 479.26,469.02 470.93,468.66C423.81,466.62 385.82,453.83 353.50,429.12C345.16,422.75 331.00,408.98 323.30,399.75C307.91,381.32 285.75,343.21 287.98,339.04C289.27,336.62 294.67,334.75 296.91,335.95C297.86,336.46 301.25,342.09 304.46,348.46C339.87,418.84 397.23,455.13 474.85,456.25C488.95,456.46 492.16,456.24 493.35,455.00C496.16,452.05 505.16,426.96 513.53,398.70C518.44,382.14 524.82,353.89 527.92,335.00C532.13,309.32 536.00,268.86 536.00,250.56C536.00,243.33 536.31,241.69 538.00,240.00C540.49,237.51 544.08,237.44 547.02,239.82L549.27,241.63L548.09,262.57C540.76,393.56 502.04,498.23 428.09,587.00C416.26,601.20 383.12,634.64 369.00,646.62C337.64,673.23 304.94,696.03 268.50,716.68C243.41,730.90 244.37,730.56 241.07,726.37Z" style="fill:#000000" />
</svg>
