<?xml version="1.0" encoding="UTF-8"?>
<svg width="1080" height="1080" viewBox="0 0 1080 1080" xmlns="http://www.w3.org/2000/svg" preserveAspectRatio="xMidYMid meet">
  <path d="M 0,540 V 0 H 540 1080 V 540 1080 H 540 0 Z" style="fill:#f0efeb" />
  <path d="M 698.5,974.41086 C 650.4849,971.82238 634.11023,970.00725 604.5,963.99096 598.14408,962.69955 551.00843,950.80796 536.5,946.83563 530.45,945.17917 520.325,942.49733 514,940.87599 499.19672,937.08133 468.75583,926.85903 449.03037,919.05865 427.61189,910.58878 419.28998,908.65754 390.5,905.47574 351.90572,901.2104 321.56596,895.29548 275.03147,882.96448 224.57863,869.59517 192.38569,854.4513 150,824.14849 110.49132,795.90253 80.190977,758.81293 73.493891,730.5 72.583219,726.65 71.595225,718.1 71.298348,711.5 70.777929,699.93035 71.083351,696.09949 74.527274,671 76.736626,654.89814 76.727668,625.55553 74.509262,612 73.564165,606.225 70.785081,594.83016 68.33352,586.67814 62.428301,567.04187 60.798257,558.18113 61.494136,549.5 62.608438,535.59902 64.962599,528.38515 74.384499,510 89.241624,481.00898 92.578998,473.90779 95.768327,464.5 101.40332,447.87804 101.73497,445.13507 102.99894,404.69798 104.75095,348.64736 108.65199,327.23187 122.16182,299.5 124.8412,294 127.5884,288.59364 128.26671,287.48587 128.94502,286.3781 130.57687,283.6781 131.89304,281.48587 134.48293,277.17212 151.03537,252.44572 156.45789,244.79037 197.72527,186.53028 204.59156,179.24256 229,167.79585 245.03973,160.27377 255.90123,156.69279 289,148.01412 301.03368,144.85883 310.34021,141.89986 311.45,140.87624 312.05,140.32283 312.05,140.00679 311.45,140.01843 310.35158,140.03973 295.84144,142.64483 288.5,144.13879 278.85436,146.10165 274.80573,146.30167 273.89259,144.86045 272.67601,142.9403 272.79293,138.24601 274.07712,137.45234 275.7191,136.43754 284.84932,134.43813 306.1375,130.43152 316.78688,128.42721 328.2,126.27268 331.5,125.64366 335.71033,124.84113 362.25712,124.50941 420.5,124.53155 504.27092,124.56339 542.56578,125.55896 572,128.47014 588.87509,130.13917 603.40256,131.50847 620.5,133.04156 680.32031,138.4055 711.6024,147.3945 752.56405,170.99054 774.63482,183.70446 786.02692,193.27465 829.89582,235.95488 876.5371,281.33237 884.53931,291.10236 915.47813,340.44322 947.87706,392.11265 961.55631,426.6081 972.40592,484 983.71735,543.8348 983.50795,541.77866 983.45573,592.5 983.40635,640.45656 982.35154,653.49234 975.48542,691 969.59085,723.20036 964.38489,743.05088 956.47172,763.5 939.19097,808.15673 922.37955,840.0607 892.97567,884 872.87689,914.03435 854.87202,935.8723 837.578,951.19137 823.99371,963.22436 816.95147,966.64272 794.5,972.10183 786.09532,974.14544 782.82107,974.30488 745,974.51225 722.725,974.63439 701.8,974.58876 698.5,974.41086 Z M 790,962.57849 C 812.11426,958.34285 822.28122,952.82206 838.92907,936.00935 857.38836,917.36727 873.75061,895.65135 897.70664,858 917.0964,827.52537 925.10043,812.57893 936.57054,785.42692 947.4629,759.64255 950.54828,751.2596 955.33962,734.43154 962.37244,709.73098 966.42843,688.06463 972.17502,644.5 973.09153,637.55195 973.49054,621.52923 973.48241,592 973.47154,552.54624 973.3043,548.42486 971.14919,534.5 966.91976,507.17232 959.67208,470.11457 955.40927,454.02094 947.68487,424.85862 942.54127,411.0075 930.52112,387 923.37566,372.72857 919.68295,366.32794 905.13623,343 877.01094,297.89671 866.31836,285.00739 819.19954,239.40806 776.15808,197.7546 761.48037,186.24638 733.39782,172.13422 707.87658,159.3092 685.27695,151.9883 657.5,147.54798 652,146.66876 646.00508,145.70932 644.17796,145.41588 642.35084,145.12243 636.05084,144.48237 630.17796,143.99351 605.00994,141.89851 582.55775,139.86457 569.5,138.49672 547.4394,136.18577 510.41763,134.94709 444.26947,134.30673 390.72363,133.78837 382.37759,133.90847 377.76947,135.26366 374.87126,136.11598 368.225,137.57406 363,138.50384 357.775,139.43362 345.175,142.62635 335,145.5988 324.825,148.57125 306.375,153.73054 294,157.0639 240.78739,171.39735 220.39304,180.3314 205.96301,195.6298 199.128,202.87612 195.91292,207.11981 173.4839,238.5 140.34295,284.86712 131.17838,300.28254 124.02286,321.69673 116.60681,343.89062 114.74769,358.41409 112.97532,408 112.39539,424.225 111.47785,440.65 110.93635,444.5 108.2284,463.75325 102.0186,479.86111 86.070735,509 69.568501,539.15179 68.124888,552.77135 78.121062,584 87.545807,613.44347 89.004822,644.39862 82.873552,684.83108 80.407406,701.094 80.765101,718.28263 83.803112,729.5 88.957159,748.5305 105.03814,771.74132 127.49943,792.56998 140.45971,804.58823 147.20736,809.98049 162.29875,820.37921 203.03069,848.44554 227.84933,859.80191 277,872.86354 329.05964,886.69822 349.93563,890.66873 401.5,896.54283 423.29566,899.02575 432.8158,901.60319 459.7045,912.3009 472.10587,917.2348 510.56115,929.81403 521.5,932.51502 525.35,933.46565 534.35,935.79151 541.5,937.68359 615.70966,957.32147 638.32742,961.29143 691,963.92442 719.47547,965.34785 779.82483,964.52739 790,962.57849 Z M 704.94039,804.70556 C 668.97042,758.08647 631.71297,699.61398 609.12594,654.33269 574.03593,583.98612 560.1354,522.02062 568.56027,473.5 576.31407,428.84425 600.49017,393.75237 643.19803,365.16248 665.99957,349.89846 703.27963,334.17766 741,323.91992 754.66351,320.20424 755.57468,320.07839 756.79451,321.73838 757.50649,322.70727 757.95649,325.00133 757.79451,326.83629 L 757.5,330.17259 744.5,333.52872 C 677.73449,350.76516 626.94301,381.20153 601.03318,419.5 581.37481,448.55792 573.03821,484.08014 577.02722,521.78941 581.39104,563.04196 592.79064,598.53266 618.04782,649.5 633.20763,680.09152 658.65557,722.46335 681.70995,755.5 689.61894,766.83348 695.49749,774.93082 706.21343,789.25205 712.69605,797.91568 718,805.64552 718,806.42947 718,808.01177 713.36286,812.02521 711.61514,811.95556 711.00181,811.93112 707.99818,808.66862 704.94039,804.70556 Z M 243.3997,727.22717 C 241.66143,726.07837 239.79602,721.97395 240.35277,720.52307 240.6315,719.79672 246.85365,715.92169 254.17978,711.9119 261.5059,707.90212 272.45,701.63414 278.5,697.98307 288.52378,691.9339 318.80604,672.25842 320,671.01903 320.275,670.73356 323.55368,668.25 327.28595,665.5 364.46953,638.10255 402.68923,601.40585 428.69868,568.12843 439.88978,553.81015 447.33466,543.84788 448.5835,541.51983 449.17942,540.40892 452.62142,535 456.23238,529.5 468.45335,510.88578 489.71054,470.9587 488.46917,468.95011 488.2514,468.59776 480.74426,468.03969 471.78662,467.70994 438.54054,466.4861 411.35723,460.22011 386.5,448.05062 353.0085,431.65401 328.8995,409.50151 306.61729,374.65057 299.35019,363.28433 288,342.21646 288,340.09375 288,339.12446 294.1347,336 296.03784,336 296.47432,336 300.21639,342.50067 304.35357,350.44593 317.26399,375.23983 328.50265,390.53001 346.65727,408 359.96861,420.80937 371.35267,428.98171 386.99096,436.95458 413.89562,450.6714 440.98162,456.90528 475.38803,457.29929 489.86505,457.46508 493.15707,457.239 494.30805,456 495.7706,454.4256 502.65621,436.78943 507.77774,421.5 524.56015,371.39898 534.03926,318.47503 536.9399,258.68118 537.41532,248.88083 538.00965,240.65702 538.26062,240.40605 539.04324,239.62343 545.96964,239.63628 546.75447,240.4218 548.56972,242.23867 546.22089,281.86396 542.45232,313 538.28341,347.44367 528.94029,390.33746 519.47233,418.5 501.4266,472.17717 482.12582,511.06123 452.46272,553.5 440.97356,569.93745 423.20885,591.67835 410.02338,605.43832 384.47406,632.10086 368.81114,646.20834 339.5,668.95824 337.3,670.66577 334.15,673.11723 332.5,674.40592 328.74198,677.34104 301.18461,695.84385 290.5,702.60593 280.6632,708.83146 249.23996,726.49448 246.5,727.33836 245.4,727.67715 244.00487,727.62712 243.3997,727.22717 Z" style="fill:#666562" />
</svg>
