<?xml version="1.0" encoding="UTF-8"?>
<svg width="1080" height="1080" viewBox="0 0 1080 1080" xmlns="http://www.w3.org/2000/svg" preserveAspectRatio="xMidYMid meet">
  <path d="M 688,974.95865 C 637.35445,972.23205 618.96518,969.19752 558.5,953.58908 496.03591,937.46464 482.70062,933.41563 450.53787,920.80837 427.68254,911.84946 418.71109,909.69759 391,906.52774 350.84908,901.93491 324.78125,896.98565 283,886.02276 243.08875,875.55054 222.36028,868.09074 198.35291,855.55981 184.94919,848.56358 161.25245,833.57372 145.5,822.12663 113.97892,799.22068 86.579882,767.65648 76.048188,742.11686 70.232129,728.01277 68.347995,705.2079 71.370512,685.5 74.407947,665.69483 75.108066,657.31208 75.12531,640.54264 75.147108,619.34329 73.41215,607.38634 67.364512,587.05692 61.460501,567.21032 59.790095,557.60783 60.571831,548.00856 61.798938,532.9404 64.954735,524.68716 81.223118,494 92.943848,471.89111 97.612399,459.34162 100.00969,443.5 100.5923,439.65 101.4719,422.325 101.96435,405 103.15233,363.20483 105.13436,345.86303 111.09969,325.07004 118.46505,299.39705 128.63932,281.74117 166.46046,229 175.72909,216.075 186.2131,201.75999 189.75827,197.18886 206.38602,175.74913 226.55161,164.58284 272.42722,151.41263 290.0388,146.3566 297.20865,143.76333 289,145.41841 287.075,145.80654 283.07009,146.39109 280.10019,146.71741 273.83743,147.40555 272,145.94623 272,140.28412 272,136.13187 271.85669,136.18763 293,132.11326 302.075,130.36449 312.875,128.24717 317,127.40811 336.82581,123.37536 342.95206,123.0642 403.16674,123.03168 492.99843,122.98317 539.3774,124.48586 587,128.98795 598.825,130.10585 616.15,131.70932 625.5,132.55122 675.89695,137.0891 704.54852,144.75951 740.45978,163.3275 771.31077,179.27906 782.71056,188.39458 834.15928,238.25162 875.12915,277.954 889.08832,295.44981 921.12402,347.24937 933.45619,367.18966 949.06401,398.25168 955.16686,415 963.85988,438.85663 968.68049,457.73045 975.8553,496 984.58095,542.54159 984.46959,541.3094 984.48563,591.5 984.49579,623.31625 984.11067,639.42972 983.17111,646.5 982.44023,652 981.19797,661.45 980.41055,667.5 975.53047,704.99497 966.59101,741.41084 955.49407,769 936.2422,816.86392 924.20786,839.23121 890.58781,889.63614 877.23379,909.65719 860.40858,930.37249 845.85228,944.7148 827.11891,963.17277 818.24231,967.97592 792.5,973.58382 785.75096,975.05408 778.16702,975.36307 744,975.55986 721.725,975.68815 696.525,975.41761 688,974.95865 Z M 791,961.55699 C 811.84164,957.33299 820.01642,952.83095 836.49832,936.5 850.19931,922.92448 862.03639,908.76508 874.70386,890.79886 882.64651,879.53383 887.17823,872.61866 905.70021,843.5 918.09312,824.01695 938.22992,781.43493 948.07279,753.89739 963.13116,711.76839 971.69848,659.04208 972.67285,602.5 973.45442,557.1461 972.19393,543.38811 962.54903,492 950.81977,429.50647 938.50593,398.24571 903.69345,342.5852 879.1098,303.27922 867.49185,288.78602 833.8108,255.40774 778.69835,200.79072 766.33493,190.58425 736,174.66128 697.73963,154.5782 672.16084,148.46341 601.5,142.50811 598.2,142.22998 586.275,141.11704 575,140.03489 544.46794,137.1045 513.28425,135.97189 444.78404,135.30534 390.70995,134.77917 382.41379,134.89726 377.78404,136.25907 374.87782,137.11392 368.225,138.59219 363,139.54411 357.775,140.49604 344.275,143.92733 333,147.1692 321.725,150.41106 303.275,155.54846 292,158.58563 232.40091,174.63998 215.75837,183.27738 197.18462,207.79441 185.82164,222.79335 159.69512,259.52604 149.32285,275.08586 122.64129,315.11186 116.13599,338.63369 114.49948,401 113.04313,456.50062 110.71695,465.61972 86.567249,510.5 82.423945,518.2 77.788825,528.1 76.266984,532.5 73.805667,539.61624 73.504228,541.88087 73.538269,553 73.573824,564.61377 73.849472,566.38623 77.426213,578 86.126929,606.25146 87.507961,615.10295 87.411651,642 87.357274,657.18617 86.81903,664.92894 84.978599,677 81.992251,696.58693 81.76391,715.89263 84.381304,727.5 88.039662,743.72374 100.98976,763.84941 120.97078,784.36348 135.50615,799.28663 146.33122,808.24533 165.63947,821.33075 209.07543,850.76781 232.43551,860.71434 296.19104,876.91852 331.2583,885.83126 355.02671,890.20683 391.5,894.46413 425.23204,898.40146 428.46105,899.21144 462.5,912.27405 483.49785,920.33208 505.11478,927.15766 532.5,934.37667 621.74997,957.90384 634.20251,960.0729 699,963.37862 702.575,963.561 722.825,963.61336 744,963.49496 775.85763,963.31684 783.9665,962.98248 791,961.55699 Z M 703.78435,804.75 C 663.77456,753.02661 622.16109,686.30433 600.94113,639.85304 575.29107,583.7041 563.45093,535.68192 565.34777,495.49066 568.8092,422.14807 611.69817,370.24561 695.87656,337.53008 716.27579,329.60202 748.20792,320.0081 754.21482,320.00252 757.35552,319.9996 759,322.38914 759,326.9557 759,330.68609 758.86872,330.75027 741.5,335.51065 699.07056,347.13963 666.61751,361.77414 640,381.28149 627.62412,390.35148 609.00302,409.24385 601.83743,420 582.99008,448.29146 574.73905,481.7913 577.86807,517.31751 580.19203,543.70324 584.67145,564.4531 593.54086,589.91798 613.88442,648.32619 650.46167,712.21505 708.16505,790.13008 714.12427,798.17663 719,805.47091 719,806.33961 719,808.37246 714.02757,813 711.84322,813 710.92075,813 707.29426,809.2875 703.78435,804.75 Z M 241.07258,726.36514 C 236.94445,721.11707 237.87246,719.72627 250,712.98567 277.65011,697.61749 298.00766,685.07156 315.5,672.61941 378.21825,627.97262 425.07276,578.72651 461.1833,519.5 473.83423,498.75063 487.64764,471.85692 486.55896,470.0954 486.29389,469.66651 479.26185,469.02061 470.9322,468.66008 423.81074,466.62051 385.81543,453.82868 353.5,429.12434 345.15555,422.74522 330.99677,408.97542 323.29832,399.75238 307.91368,381.321 285.7453,343.21295 287.97948,339.03834 289.27393,336.61964 294.67335,334.75481 296.91241,335.95312 297.8557,336.45796 301.25184,342.08693 304.45938,348.46195 339.87028,418.84142 397.22985,455.12687 474.85341,456.25256 488.94694,456.45695 492.16455,456.23901 493.34639,455 496.15763,452.05278 505.15611,426.95689 513.53403,398.69866 518.44383,382.13818 524.82221,353.89411 527.91915,335 532.12819,309.32104 536,268.86427 536,250.56261 536,243.33333 536.31143,241.68857 538,240 540.48919,237.51081 544.08424,237.43787 547.02227,239.81695 L 549.2661,241.63389 548.09382,262.56695 C 540.75809,393.55853 502.04212,498.22577 428.08739,587 416.25633,601.20185 383.12107,634.63514 369,646.61886 337.63846,673.23353 304.9357,696.03157 268.5,716.68028 243.41486,730.89645 244.37126,730.55874 241.07258,726.36514 Z" style="fill:#000000" />
</svg>
